<?xml version="1.0" encoding="iso-8859-1"?>
<!-- Generator: Adobe Illustrator 19.0.0, SVG Export Plug-In . SVG Version: 6.00 Build 0)  -->
<svg version="1.1" id="Capa_1" xmlns="http://www.w3.org/2000/svg" xmlns:xlink="http://www.w3.org/1999/xlink" x="0px" y="0px"
	 viewBox="0 0 511.999 511.999" style="enable-background:new 0 0 511.999 511.999;" xml:space="preserve">
<g>
	<g>
		<path d="M494.05,152.765c-4.349-6.962-9.899-10.906-16.493-11.716c-10.518-1.298-22.144,5.266-40.137,22.636
			c-2.98,2.876-3.064,7.624-0.187,10.604c2.876,2.979,7.624,3.063,10.605,0.187c13.395-12.93,22.779-19.162,27.888-18.539
			c0.702,0.086,2.837,0.349,5.602,4.775c3.793,6.076-12.46,24.53-25.521,39.358c-19.573,22.223-41.757,47.41-46.229,74.623
			c-6.433,39.139-54.167,87.209-54.647,87.688c-2.333,2.328-2.873,5.907-1.33,8.819l8.354,15.769l-57.859,57.859
			c-10.77-22.981-27.509-62.466-27.574-85.97c1.024-30.281,41.552-82.126,80.775-132.298c13.805-17.658,25.161-22.754,31.19-21.616
			c2.153,0.402,3.566,1.669,4.199,3.765c1.006,3.33-0.007,9.35-6.176,15.355c-26.207,25.516-39.939,69.978-40.512,71.857
			c-1.205,3.962,1.03,8.148,4.991,9.355c3.961,1.208,8.152-1.025,9.359-4.987c0.13-0.425,13.214-42.684,36.625-65.478
			c5.427-5.284,8.977-11.518,10.374-17.764c0.772-0.813,1.553-1.627,2.309-2.438l4.997-5.389c3.569-3.85,7.003-7.554,10.305-11.103
			c2.822-3.033,2.651-7.778-0.382-10.601c-3.031-2.819-7.778-2.649-10.6,0.382c-3.144,3.38-6.411,6.903-9.796,10.553
			c-2.989-4.281-7.522-7.241-12.936-8.254c-8.001-1.499-24.59,0.033-45.767,27.122c-42.197,53.976-82.119,105.045-83.915,140.294
			c-0.145,1.345-0.167,2.859,0.032,4.174c1.278,27.552,19.021,68.859,31.235,94.302l-11.504,11.504
			c-1.407,1.407-2.197,3.314-2.197,5.304s0.79,3.896,2.197,5.304l31.6,31.6c1.464,1.464,3.384,2.196,5.303,2.196
			s3.839-0.732,5.303-2.196l14.7-14.7c2.929-2.93,2.929-7.678,0-10.607c-2.929-2.928-7.678-2.928-10.606,0l-9.397,9.397
			L297.237,472.9l79.152-79.151c0.07-0.067,0.138-0.135,0.205-0.205l17.061-17.061l20.993,20.992l-63.498,63.498
			c-2.929,2.93-2.929,7.678,0,10.607c2.929,2.928,7.678,2.928,10.606,0l68.801-68.802c1.407-1.407,2.197-3.314,2.197-5.304
			s-0.79-3.896-2.197-5.304l-31.599-31.599c-2.929-2.928-7.678-2.928-10.606,0l-15.3,15.3l-3.651-6.892
			c12.194-12.968,48.848-54.551,54.979-91.855c3.773-22.964,24.445-46.434,42.683-67.142c9.069-10.298,17.636-20.023,23.114-28.696
			C492.874,177.017,501.081,164.025,494.05,152.765z"/>
	</g>
</g>
<g>
	<g>
		<path d="M401.655,391.901l-4.192-4.192c-2.929-2.928-7.678-2.928-10.606,0c-2.929,2.93-2.929,7.678,0,10.607l4.192,4.192
			c1.464,1.464,3.384,2.196,5.303,2.196s3.839-0.732,5.303-2.196C404.584,399.578,404.584,394.83,401.655,391.901z"/>
	</g>
</g>
<g>
	<g>
		<path d="M250.434,357.616c-1.796-35.249-41.718-86.319-83.915-140.294c-21.177-27.088-37.766-28.622-45.767-27.122
			c-5.414,1.013-9.948,3.973-12.937,8.255l-0.348-0.375c-33.994-36.666-54.506-58.79-72.473-57.092
			c-6.836,0.649-12.571,4.613-17.046,11.781c-7.03,11.263,1.179,24.257,3.877,28.527c5.48,8.676,14.049,18.404,23.122,28.705
			c5.314,6.034,10.811,12.274,16.074,18.722c1.482,1.816,3.639,2.757,5.814,2.757c1.668,0,3.346-0.554,4.739-1.69
			c3.208-2.619,3.686-7.344,1.066-10.553c-5.441-6.664-11.031-13.012-16.437-19.149c-13.065-14.834-29.325-33.296-25.531-39.375
			c2.818-4.514,4.942-4.716,5.741-4.792c10.607-0.972,33.508,23.725,60.054,52.357l5.885,6.344c0.748,0.803,1.529,1.616,2.298,2.426
			c1.398,6.246,4.947,12.48,10.374,17.764c23.412,22.794,36.496,65.053,36.625,65.478c1.207,3.961,5.396,6.194,9.356,4.99
			c3.963-1.205,6.199-5.395,4.994-9.358c-0.572-1.88-14.305-46.342-40.512-71.857c-6.169-6.006-7.183-12.025-6.176-15.355
			c0.633-2.096,2.046-3.362,4.199-3.765c6.029-1.135,17.386,3.958,31.19,21.616c39.223,50.171,79.751,102.016,80.775,132.298
			c-0.064,23.504-16.804,62.989-27.574,85.97l-57.859-57.859l8.354-15.769c1.542-2.911,1.002-6.489-1.328-8.818
			c-0.481-0.48-48.215-48.551-54.648-87.687c-1.414-8.62-4.667-17.459-9.945-27.021c-2.002-3.627-6.565-4.944-10.19-2.942
			c-3.626,2.002-4.943,6.564-2.941,10.19c4.436,8.037,7.143,15.299,8.275,22.203c6.132,37.304,42.786,78.887,54.979,91.854
			l-3.651,6.892l-15.3-15.3c-2.929-2.928-7.678-2.928-10.606,0l-31.599,31.599c-1.407,1.407-2.197,3.314-2.197,5.304
			s0.79,3.896,2.197,5.304l107.024,107.024c1.406,1.406,3.314,2.196,5.303,2.196s3.897-0.79,5.303-2.196l31.6-31.6
			c1.407-1.407,2.197-3.314,2.197-5.304s-0.79-3.896-2.197-5.304l-11.504-11.504c12.214-25.443,29.957-66.75,31.235-94.302
			c0.048-0.331,0.085-0.667,0.091-1.013C250.51,359.751,250.544,358.645,250.434,357.616z M193.768,493.894l-96.417-96.418
			l20.993-20.992l17.061,17.061c0.067,0.07,0.135,0.137,0.205,0.205l79.152,79.151L193.768,493.894z"/>
	</g>
</g>
<g>
	<g>
		<path d="M125.141,387.708c-2.928-2.928-7.677-2.928-10.606,0l-4.192,4.192c-2.929,2.93-2.929,7.678,0,10.607
			c1.464,1.464,3.384,2.196,5.303,2.196c1.919,0,3.839-0.732,5.303-2.196l4.192-4.192
			C128.07,395.385,128.07,390.637,125.141,387.708z"/>
	</g>
</g>
<g>
	<g>
		<path d="M278.226,19.121L261.302,2.196C259.896,0.79,257.988,0,255.999,0s-3.897,0.79-5.303,2.196l-16.924,16.925
			c-2.929,2.93-2.929,7.678,0,10.607c2.929,2.928,7.678,2.929,10.606-0.001l4.121-4.121v235.021c0,4.143,3.358,7.5,7.5,7.5
			s7.5-3.357,7.5-7.5V25.606l4.121,4.121c1.464,1.465,3.384,2.197,5.303,2.197s3.839-0.732,5.303-2.196
			C281.155,26.798,281.155,22.05,278.226,19.121z"/>
	</g>
</g>
<g>
	<g>
		<path d="M220.726,180.494l-74.331-74.33V71.326l4.122,4.122c2.929,2.928,7.678,2.928,10.606,0c2.929-2.93,2.929-7.678,0-10.607
			l-16.925-16.925c-1.406-1.406-3.314-2.196-5.303-2.196s-3.897,0.79-5.303,2.197l-16.924,16.924c-2.929,2.93-2.929,7.678,0,10.607
			c1.464,1.464,3.383,2.197,5.303,2.197c1.919,0,3.839-0.732,5.303-2.196l4.121-4.121v37.942c0,1.989,0.79,3.896,2.197,5.304
			l74.331,74.33v19.642c0,4.143,3.358,7.5,7.5,7.5c4.142,0,7.5-3.357,7.5-7.5v-22.748
			C222.923,183.809,222.133,181.902,220.726,180.494z"/>
	</g>
</g>
<g>
	<g>
		<path d="M395.33,64.841l-16.924-16.924c-1.406-1.407-3.314-2.197-5.303-2.197s-3.897,0.79-5.303,2.196l-16.925,16.925
			c-2.929,2.93-2.929,7.678,0,10.607c2.929,2.928,7.678,2.928,10.606,0l4.122-4.122v45.117h-61.03c-4.142,0-7.5,3.357-7.5,7.5
			v84.601c0,4.143,3.358,7.5,7.5,7.5c4.142,0,7.5-3.357,7.5-7.5v-77.101h61.03c4.142,0,7.5-3.357,7.5-7.5V71.327l4.121,4.121
			c1.464,1.464,3.384,2.196,5.303,2.196s3.839-0.732,5.303-2.196C398.259,72.518,398.259,67.77,395.33,64.841z"/>
	</g>
</g>
<g>
</g>
<g>
</g>
<g>
</g>
<g>
</g>
<g>
</g>
<g>
</g>
<g>
</g>
<g>
</g>
<g>
</g>
<g>
</g>
<g>
</g>
<g>
</g>
<g>
</g>
<g>
</g>
<g>
</g>
</svg>
