<?xml version="1.0" encoding="utf-8"?>
<!-- Generator: Adobe Illustrator 22.0.1, SVG Export Plug-In . SVG Version: 6.00 Build 0)  -->
<svg version="1.1" id="Layer_1" xmlns="http://www.w3.org/2000/svg" xmlns:xlink="http://www.w3.org/1999/xlink" x="0px" y="0px"
	 viewBox="0 0 300 150" style="enable-background:new 0 0 300 150;" xml:space="preserve">
<style type="text/css">
	.st0{fill:#FFFFFF;}
	.st1{fill:#C01B1D;}
</style>
<g>
	<g>
		<path class="st0" d="M42,60.7h5.2v13.6c0,3.8,1.6,5.7,4.9,5.7c3.2,0,4.8-1.9,4.8-5.7V60.7h5.2v14.1c0,3.2-1,5.6-2.9,7.4
			s-4.3,2.6-7.2,2.6c-2.9,0-5.3-0.9-7.2-2.5C42.9,80.5,42,78,42,74.8V60.7z"/>
		<path class="st0" d="M66.7,90.9V67.2h5.1v2.2c0.5-1.5,2.5-2.5,5.1-2.5c2.4,0,4.5,0.9,6.1,2.6c1.6,1.7,2.4,3.8,2.4,6.3
			s-0.8,4.6-2.4,6.3c-1.6,1.7-3.6,2.6-6.1,2.6c-2.6,0-4.6-1.1-5.1-2.6v8.8H66.7z M79.1,78.9c0.9-0.8,1.3-1.9,1.3-3.1
			c0-1.2-0.4-2.2-1.3-3c-0.8-0.9-1.9-1.3-3.1-1.3c-1.3,0-2.3,0.4-3.2,1.3c-0.9,0.8-1.3,1.8-1.3,3c0,1.2,0.4,2.2,1.3,3.1
			c0.9,0.8,1.9,1.2,3.2,1.2C77.2,80.1,78.2,79.7,79.1,78.9z"/>
		<path class="st0" d="M90,78.7c1,1.1,2.8,1.9,4.7,1.9c1.7,0,2.6-0.5,2.6-1.4c0-0.3-0.2-0.6-0.6-0.8c-0.4-0.2-1.1-0.4-2.1-0.7
			c-1-0.2-1.8-0.5-2.3-0.6c-2.6-0.9-3.9-2.5-3.9-4.8c0-1.7,0.6-3.1,1.9-4c1.3-1,2.9-1.5,4.7-1.5c2.4,0,4.4,0.7,5.9,2.2l-2.4,3.3
			c-0.9-0.9-2.1-1.3-3.6-1.3c-1.1,0-1.7,0.4-1.7,1.1c0,0.4,0.2,0.7,0.7,0.9c0.6,0.3,2.1,0.5,4,1.2c2.8,1,4.2,2.6,4.2,4.9
			c0,3.5-2.5,5.8-7.5,5.8c-3.3,0-5.8-1-7.5-3.1L90,78.7z"/>
		<path class="st0" d="M118.2,69.5v-2.2h5.1v17.1h-5.1v-2.2c-0.5,1.5-2.5,2.6-5.1,2.6c-2.4,0-4.5-0.9-6.1-2.6
			c-1.6-1.7-2.4-3.8-2.4-6.3s0.8-4.6,2.4-6.3c1.6-1.7,3.7-2.6,6.1-2.6C115.7,66.9,117.7,68,118.2,69.5z M117.2,78.9
			c0.9-0.8,1.3-1.9,1.3-3.1c0-1.2-0.4-2.2-1.3-3c-0.9-0.9-1.9-1.3-3.2-1.3c-1.2,0-2.2,0.4-3.1,1.3c-0.9,0.8-1.3,1.8-1.3,3
			c0,1.2,0.4,2.2,1.3,3.1c0.8,0.8,1.9,1.2,3.1,1.2C115.3,80.1,116.3,79.7,117.2,78.9z"/>
		<path class="st0" d="M127.5,84.4V60.7h5.1v23.7H127.5z"/>
		<path class="st0" d="M136.1,75.8c0-2.7,0.9-4.9,2.6-6.5c1.7-1.7,4-2.5,6.7-2.5c2.6,0,4.7,0.8,6.4,2.5c1.6,1.7,2.4,3.7,2.4,6.2
			c0,0.6,0,1.1-0.1,1.6h-13c0.1,2,1.9,3.4,4.6,3.4c1.6,0,3-0.5,4.2-1.7l3,2.8c-2,2.1-4.5,3.1-7.4,3.1c-2.8,0-5.1-0.8-6.8-2.4
			c-1.7-1.6-2.6-3.8-2.6-6.5V75.8z M149,73.8c0-1.6-1.7-2.9-3.7-2.9c-2.2,0-4,1.3-4.1,2.9H149z"/>
		<path class="st0" d="M159,78.7c1,1.1,2.8,1.9,4.7,1.9c1.7,0,2.6-0.5,2.6-1.4c0-0.3-0.2-0.6-0.6-0.8c-0.4-0.2-1.1-0.4-2.1-0.7
			c-1-0.2-1.8-0.5-2.3-0.6c-2.6-0.9-3.9-2.5-3.9-4.8c0-1.7,0.6-3.1,1.9-4c1.3-1,2.9-1.5,4.7-1.5c2.4,0,4.4,0.7,5.9,2.2l-2.4,3.3
			c-0.9-0.9-2.1-1.3-3.6-1.3c-1.1,0-1.7,0.4-1.7,1.1c0,0.4,0.2,0.7,0.7,0.9c0.6,0.3,2.1,0.5,4,1.2c2.8,1,4.2,2.6,4.2,4.9
			c0,3.5-2.5,5.8-7.5,5.8c-3.3,0-5.8-1-7.5-3.1L159,78.7z"/>
	</g>
	<g id="QBx7j6_5_">
		<g>
			<path class="st1" d="M175,89.6c0-9.7,0-19.5,0-29.2c0-0.1,0.1-0.3,0.1-0.4c0.2-0.8,0.3-1.6,0.5-2.3c1.7-5,5.3-7.9,10.3-9.1
				c0.7-0.2,1.4-0.2,2.1-0.4c19,0,38,0,57.1,0c0.1,0,0.2,0.1,0.3,0.1c0.8,0.2,1.7,0.2,2.5,0.5c5.1,1.5,8.5,4.7,9.8,10
				c0.1,0.6,0.2,1.1,0.3,1.7c0,9.7,0,19.5,0,29.2c0,0.1-0.1,0.2-0.1,0.4c-0.2,0.9-0.3,1.8-0.6,2.6c-1.8,4.8-5.3,7.7-10.2,8.9
				c-0.7,0.2-1.4,0.2-2.1,0.4c-19,0-38,0-57.1,0c-0.1,0-0.2-0.1-0.3-0.1c-1-0.2-2.1-0.3-3-0.6c-4.8-1.6-8-4.8-9.3-9.8
				C175.2,90.7,175.1,90.2,175,89.6z"/>
		</g>
	</g>
	<g>
		<path class="st0" d="M186.2,85.5V61.8h5.2v18.9h9.2v4.8H186.2z"/>
		<path class="st0" d="M216.1,70.6v-2.2h5.1v17.1h-5.1v-2.2c-0.5,1.5-2.5,2.5-5.1,2.5c-2.4,0-4.5-0.8-6.1-2.5
			c-1.6-1.7-2.4-3.8-2.4-6.3c0-2.5,0.8-4.6,2.4-6.3c1.6-1.7,3.7-2.6,6.1-2.6C213.6,68.1,215.6,69.1,216.1,70.6z M215.1,80
			c0.9-0.8,1.3-1.9,1.3-3.1c0-1.2-0.4-2.2-1.3-3c-0.9-0.8-1.9-1.3-3.2-1.3c-1.2,0-2.2,0.4-3.1,1.3c-0.8,0.8-1.3,1.8-1.3,3
			c0,1.2,0.4,2.2,1.3,3.1c0.8,0.8,1.9,1.2,3.1,1.2C213.2,81.2,214.2,80.8,215.1,80z"/>
		<path class="st0" d="M225.4,85.5V61.8h5.1v8.8c0.5-1.5,2.5-2.5,5.1-2.5c2.4,0,4.5,0.8,6.1,2.6c1.6,1.7,2.4,3.8,2.4,6.3
			c0,2.5-0.8,4.6-2.4,6.3c-1.6,1.7-3.6,2.5-6.1,2.5c-2.6,0-4.6-1.1-5.1-2.5v2.2H225.4z M237.7,80c0.9-0.8,1.3-1.9,1.3-3.1
			c0-1.2-0.4-2.2-1.3-3c-0.8-0.8-1.9-1.3-3.1-1.3c-1.3,0-2.3,0.4-3.2,1.3c-0.8,0.8-1.3,1.8-1.3,3c0,1.2,0.4,2.2,1.3,3.1
			c0.9,0.8,1.9,1.2,3.2,1.2C235.9,81.2,236.9,80.8,237.7,80z"/>
		<path class="st0" d="M246.5,81.1c1.1-1.1,2.8-1.1,3.9,0c1.1,1.1,1.1,2.8,0,3.9c-1.1,1.1-2.8,1.1-3.9,0
			C245.4,83.9,245.4,82.2,246.5,81.1z"/>
	</g>
</g>
</svg>
