<?xml version="1.0" encoding="iso-8859-1"?>
<!-- Generator: Adobe Illustrator 19.0.0, SVG Export Plug-In . SVG Version: 6.00 Build 0)  -->
<svg version="1.1" id="Capa_1" xmlns="http://www.w3.org/2000/svg" xmlns:xlink="http://www.w3.org/1999/xlink" x="0px" y="0px"
	 viewBox="0 0 480 480" style="enable-background:new 0 0 480 480;" xml:space="preserve">
<g>
	<g>
		<path d="M383.384,4.944C382.148,1.955,379.234,0.004,376,0h-40c-4.418,0-8,3.582-8,8s3.582,8,8,8h20.688l-50.496,50.496
			L279.2,12.424c-1.32-2.644-3.99-4.345-6.944-4.424c-2.96-0.119-5.738,1.424-7.2,4L214.32,99.008l-40.664-40.664
			c-3.124-3.123-8.188-3.123-11.312,0l-64,64c-3.178,3.069-3.266,8.134-0.197,11.312c3.069,3.178,8.134,3.266,11.312,0.197
			c0.067-0.064,0.132-0.13,0.197-0.197L168,75.312l42.344,42.344c1.765,1.736,4.223,2.575,6.68,2.28
			c2.462-0.317,4.637-1.76,5.888-3.904L271.456,32.8L296.8,83.576c1.151,2.302,3.339,3.91,5.88,4.32
			c2.539,0.428,5.127-0.408,6.936-2.24L368,27.312V48c0,4.418,3.582,8,8,8s8-3.582,8-8V8C383.995,6.951,383.786,5.913,383.384,4.944
			z"/>
	</g>
</g>
<g>
	<g>
		<path d="M160,136h-32c-4.418,0-8,3.582-8,8v112c0,4.418,3.582,8,8,8h32c4.418,0,8-3.582,8-8V144C168,139.582,164.418,136,160,136z
			 M152,248h-16v-96h16V248z"/>
	</g>
</g>
<g>
	<g>
		<path d="M224,152h-32c-4.418,0-8,3.582-8,8v96c0,4.418,3.582,8,8,8h32c4.418,0,8-3.582,8-8v-96C232,155.582,228.418,152,224,152z
			 M216,248h-16v-80h16V248z"/>
	</g>
</g>
<g>
	<g>
		<path d="M288,192h-32c-4.418,0-8,3.582-8,8v56c0,4.418,3.582,8,8,8h32c4.418,0,8-3.582,8-8v-56C296,195.582,292.418,192,288,192z
			 M280,248h-16v-40h16V248z"/>
	</g>
</g>
<g>
	<g>
		<path d="M352,216h-32c-4.418,0-8,3.582-8,8v32c0,4.418,3.582,8,8,8h32c4.418,0,8-3.582,8-8v-32C360,219.582,356.418,216,352,216z
			 M344,248h-16v-16h16V248z"/>
	</g>
</g>
<g>
	<g>
		<path d="M232,15.344c-0.362-4.418-4.238-7.706-8.656-7.344C122.326,16.941,43.78,99.716,40.144,201.064
			C25.975,204.652,16.039,217.384,16,232v66.28c0.004,51.23,25.608,99.069,68.232,127.488L112,444.28V472c0,4.418,3.582,8,8,8
			s8-3.582,8-8v-32c0-2.674-1.335-5.172-3.56-6.656l-31.336-20.888C54.926,387.008,31.996,344.162,32,298.28V232
			c0-8.837,7.163-16,16-16s16,7.163,16,16v43.056c-5.127,5.775-7.971,13.222-8,20.944v32c0,4.418,3.582,8,8,8s8-3.582,8-8v-32
			c0-8.837,7.163-16,16-16s16,7.163,16,16v40c-0.006,2.864,1.52,5.512,4,6.944l38.544,22.024
			c18.207,10.39,29.449,29.741,29.456,50.704V472c0,4.418,3.582,8,8,8s8-3.582,8-8v-56.328
			c-0.002-26.697-14.308-51.347-37.488-64.592L120,331.36V296c0-17.673-14.327-32-32-32c-2.704,0.034-5.393,0.416-8,1.136V232
			c-0.046-14.432-9.761-27.043-23.704-30.768C59.771,108.184,131.909,32.244,224.656,24C229.074,23.638,232.362,19.762,232,15.344z"
			/>
	</g>
</g>
<g>
	<g>
		<path d="M439.728,201.056c-1.338-43.242-16.633-84.89-43.6-118.72c-2.766-3.446-7.802-3.998-11.248-1.232
			c-3.446,2.766-3.998,7.802-1.232,11.248c24.903,30.931,38.987,69.169,40.096,108.864C409.779,204.928,400.043,217.55,400,232
			v33.136c-2.607-0.72-5.296-1.102-8-1.136c-17.673,0-32,14.327-32,32v35.36l-34.52,19.72C302.303,364.327,288,388.976,288,415.672
			V472c0,4.418,3.582,8,8,8s8-3.582,8-8v-56.328c0-20.956,11.229-40.306,29.424-50.704L372,342.944c2.48-1.432,4.006-4.08,4-6.944
			v-40c0-8.837,7.163-16,16-16s16,7.163,16,16v32c0,4.418,3.582,8,8,8s8-3.582,8-8v-32c-0.029-7.722-2.873-15.169-8-20.944V232
			c0-8.837,7.163-16,16-16s16,7.163,16,16v66.28c0.004,45.882-22.926,88.728-61.104,114.176l-31.336,20.888
			c-2.225,1.484-3.56,3.982-3.56,6.656v32c0,4.418,3.582,8,8,8s8-3.582,8-8v-27.72l27.768-18.512
			C438.392,397.349,463.996,349.51,464,298.28V232C463.95,217.344,453.95,204.595,439.728,201.056z"/>
	</g>
</g>
<g>
	<g>
		<path d="M367.24,142.896c-4.162-3.913-9.543-6.277-15.24-6.696v-14.456l14.144,3.376l3.712-15.568L352,105.296V88h-16v16h-5.84
			c-6.469-0.032-12.699,2.436-17.392,6.888c-9.448,8.869-9.918,23.718-1.049,33.167c0.339,0.361,0.689,0.711,1.049,1.049
			c4.692,4.454,10.923,6.925,17.392,6.896H336v15.944c-0.589-0.01-1.176-0.077-1.752-0.2l-20.392-4.864l-3.712,15.568l20.424,4.864
			c1.783,0.401,3.604,0.613,5.432,0.632V200h16v-16.2c5.682-0.425,11.047-2.786,15.2-6.688c4.738-4.431,7.431-10.625,7.44-17.112
			C374.64,153.522,371.962,147.331,367.24,142.896z M336,136h-5.84c-2.373,0.022-4.665-0.869-6.4-2.488
			c-3.046-2.771-3.27-7.486-0.499-10.533c0.159-0.174,0.325-0.341,0.499-0.499c1.738-1.614,4.028-2.501,6.4-2.48H336V136z
			 M356.699,165.005c-0.159,0.174-0.325,0.341-0.499,0.499v0.016c-1.192,1.05-2.641,1.766-4.2,2.072v-15.2
			c1.56,0.309,3.009,1.027,4.2,2.08C359.246,157.243,359.47,161.958,356.699,165.005z"/>
	</g>
</g>
<g>
</g>
<g>
</g>
<g>
</g>
<g>
</g>
<g>
</g>
<g>
</g>
<g>
</g>
<g>
</g>
<g>
</g>
<g>
</g>
<g>
</g>
<g>
</g>
<g>
</g>
<g>
</g>
<g>
</g>
</svg>
